<?xml version="1.0"?>
<svg width="34" height="34" xmlns="http://www.w3.org/2000/svg" xmlns:svg="http://www.w3.org/2000/svg" preserveAspectRatio="xMidYMid">
 <metadata id="metadata4095">image/svg+xml</metadata>
 <defs>
  <clipPath clipPathUnits="userSpaceOnUse" id="presentation_clip_path">
   <rect height="600" id="rect3969" width="564" x="-334.50157" y="-57.525763"/>
  </clipPath>
 </defs>
 <g class="layer">
  <title>Layer 1</title>
  <g id="g4027">
   <g class="Master_Slide" id="id2">
    <g class="Background" id="bg-id2"/>
    <g class="BackgroundObjects" id="bo-id2"/>
   </g>
  </g>
  <g class="com.sun.star.drawing.CustomShape" id="g4068" transform="matrix(0.0673392 0 0 0.0673392 -30.0655 67.0121)">
   <g id="id3">
    <rect class="BoundingBox" fill="none" height="407" id="rect4029" width="407" x="504.999379" y="-939.026235"/>
    <path d="m532.999379,-535.026235c-13,0 -25,-13 -25,-26c0,-13 12,-25 25,-25l25,0l0,-325c0,-13 12,-25 25,-25l300,0c13,0 26,12 26,25c0,12 -13,25 -26,25l-25,0l0,325c0,13 -13,26 -25,26l-300,0zm-25,-401zm401,401z" fill="#ffffff" id="path4031"/>
    <path d="m532.999379,-535.026235c-13,0 -25,-13 -25,-26c0,-13 12,-25 25,-25l25,0l0,-325c0,-13 12,-25 25,-25l300,0c13,0 26,12 26,25c0,12 -13,25 -26,25l-25,0l0,325c0,13 -13,26 -25,26l-300,0z" fill="none" id="path4033" stroke="#000000" stroke-linejoin="round" stroke-width="4"/>
    <path d="m607.999379,-911.026235c0,12 -13,25 -25,25c-7,0 -13,-7 -13,-13c0,-6 6,-12 13,-12l25,0zm-100,-25zm401,401z" id="path4035"/>
    <path d="m607.999379,-911.026235c0,12 -13,25 -25,25c-7,0 -13,-7 -13,-13c0,-6 6,-12 13,-12l25,0z" fill="none" id="path4037" stroke="#000000" stroke-linejoin="round" stroke-width="4"/>
    <path d="m557.999379,-561.026235c0,13 -13,26 -25,26c-13,0 -25,-13 -25,-26c0,-13 12,-25 25,-25c6,0 12,6 12,13c0,6 -6,12 -12,12l25,0zm-50,-375zm401,401z" id="path4039"/>
    <path d="m557.999379,-561.026235c0,13 -13,26 -25,26c-13,0 -25,-13 -25,-26c0,-13 12,-25 25,-25c6,0 12,6 12,13c0,6 -6,12 -12,12l25,0z" fill="none" id="path4041" stroke="#000000" stroke-linejoin="round" stroke-width="4"/>
    <path d="m582.999379,-936.026235c12,0 25,12 25,25l-25,-25zm-75,0zm401,401z" id="path4043"/>
    <path d="m582.999379,-936.026235c12,0 25,12 25,25" fill="none" id="path4045" stroke="#000000" stroke-linejoin="round" stroke-width="4"/>
    <path d="m507.999379,-936.026235z" fill="none" id="path4047" stroke="#000000" stroke-linejoin="round" stroke-width="4"/>
    <path d="m908.999379,-535.026235z" fill="none" id="path4049" stroke="#000000" stroke-linejoin="round" stroke-width="4"/>
    <path d="m557.999379,-586.026235l0,25l0,-25zm-50,-350zm401,401z" id="path4051"/>
    <path d="m557.999379,-586.026235l0,25" fill="none" id="path4053" stroke="#000000" stroke-linejoin="round" stroke-width="4"/>
    <path d="m507.999379,-936.026235z" fill="none" id="path4055" stroke="#000000" stroke-linejoin="round" stroke-width="4"/>
    <path d="m908.999379,-535.026235z" fill="none" id="path4057" stroke="#000000" stroke-linejoin="round" stroke-width="4"/>
    <path d="m582.999379,-886.026235l300,0l-300,0zm-75,-50zm401,401z" id="path4059"/>
    <path d="m582.999379,-886.026235l300,0" fill="none" id="path4061" stroke="#000000" stroke-linejoin="round" stroke-width="4"/>
    <path d="m507.999379,-936.026235z" fill="none" id="path4063" stroke="#000000" stroke-linejoin="round" stroke-width="4"/>
    <path d="m908.999379,-535.026235z" fill="none" id="path4065" stroke="#000000" stroke-linejoin="round" stroke-width="4"/>
   </g>
  </g>
  <text fill="#3f3f3f" font-family="Sans-serif" font-size="7" id="svg_1" stroke="#000000" stroke-dasharray="null" stroke-linecap="null" stroke-linejoin="null" stroke-width="0" text-anchor="middle" x="14.081562" xml:space="preserve" y="14.724871">title</text>
  <text fill="#7f7f7f" font-family="Sans-serif" font-size="7" id="svg_2" stroke="#000000" stroke-dasharray="null" stroke-linecap="null" stroke-linejoin="null" stroke-width="0" text-anchor="middle" x="15.402642" xml:space="preserve" y="22.076967">desc</text>
  <text fill="#bfbfbf" font-family="Sans-serif" font-size="7" id="svg_3" stroke="#000000" stroke-dasharray="null" stroke-linecap="null" stroke-linejoin="null" stroke-width="0" text-anchor="middle" x="13.966686" xml:space="preserve" y="29.19931">key</text>
 </g>
</svg>